<mxfile host="app.diagrams.net" modified="2023-09-13T12:10:26.324Z" agent="Mozilla/5.0 (X11; Linux x86_64; rv:109.0) Gecko/20100101 Firefox/111.0" etag="ot42x_pQEqIVmWtYARhu" version="21.5.2" type="device">
  <diagram name="Page-1" id="2YBvvXClWsGukQMizWep">
    <mxGraphModel dx="953" dy="598" grid="1" gridSize="10" guides="1" tooltips="1" connect="1" arrows="1" fold="1" page="1" pageScale="1" pageWidth="850" pageHeight="1100" math="0" shadow="0">
      <root>
        <mxCell id="0" />
        <mxCell id="1" parent="0" />
        <mxCell id="2an6MPPrzPokmKwTBV1P-36" value="" style="endArrow=none;dashed=1;html=1;rounded=0;entryX=0.5;entryY=1;entryDx=0;entryDy=0;" edge="1" parent="1" source="2an6MPPrzPokmKwTBV1P-35">
          <mxGeometry width="50" height="50" relative="1" as="geometry">
            <mxPoint x="665" y="670" as="sourcePoint" />
            <mxPoint x="664.5" y="430" as="targetPoint" />
          </mxGeometry>
        </mxCell>
        <mxCell id="2an6MPPrzPokmKwTBV1P-6" value="Cliente" style="shape=umlActor;verticalLabelPosition=bottom;verticalAlign=top;html=1;outlineConnect=0;" vertex="1" parent="1">
          <mxGeometry x="100" y="70" width="30" height="60" as="geometry" />
        </mxCell>
        <mxCell id="2an6MPPrzPokmKwTBV1P-8" value="" style="endArrow=none;dashed=1;html=1;rounded=0;" edge="1" parent="1" target="aM9ryv3xv72pqoxQDRHE-2">
          <mxGeometry width="50" height="50" relative="1" as="geometry">
            <mxPoint x="115" y="410" as="sourcePoint" />
            <mxPoint x="114.5" y="150" as="targetPoint" />
          </mxGeometry>
        </mxCell>
        <mxCell id="2an6MPPrzPokmKwTBV1P-14" style="edgeStyle=elbowEdgeStyle;rounded=0;orthogonalLoop=1;jettySize=auto;html=1;elbow=vertical;curved=0;" edge="1" parent="1">
          <mxGeometry relative="1" as="geometry">
            <mxPoint x="120" y="300" as="sourcePoint" />
            <mxPoint x="260" y="300" as="targetPoint" />
          </mxGeometry>
        </mxCell>
        <mxCell id="aM9ryv3xv72pqoxQDRHE-2" value="" style="html=1;points=[];perimeter=orthogonalPerimeter;outlineConnect=0;targetShapes=umlLifeline;portConstraint=eastwest;newEdgeStyle={&quot;edgeStyle&quot;:&quot;elbowEdgeStyle&quot;,&quot;elbow&quot;:&quot;vertical&quot;,&quot;curved&quot;:0,&quot;rounded&quot;:0};" parent="1" vertex="1">
          <mxGeometry x="110" y="300" width="10" height="90" as="geometry" />
        </mxCell>
        <mxCell id="2an6MPPrzPokmKwTBV1P-10" value="espaços" style="rounded=0;whiteSpace=wrap;html=1;" vertex="1" parent="1">
          <mxGeometry x="190" y="130" width="150" height="40" as="geometry" />
        </mxCell>
        <mxCell id="2an6MPPrzPokmKwTBV1P-11" value="" style="endArrow=none;dashed=1;html=1;rounded=0;entryX=0.5;entryY=1;entryDx=0;entryDy=0;" edge="1" parent="1" source="2an6MPPrzPokmKwTBV1P-12" target="2an6MPPrzPokmKwTBV1P-10">
          <mxGeometry width="50" height="50" relative="1" as="geometry">
            <mxPoint x="265" y="400" as="sourcePoint" />
            <mxPoint x="264.5" y="260" as="targetPoint" />
          </mxGeometry>
        </mxCell>
        <mxCell id="2an6MPPrzPokmKwTBV1P-13" value="" style="endArrow=none;dashed=1;html=1;rounded=0;entryX=0.5;entryY=1;entryDx=0;entryDy=0;" edge="1" parent="1" target="2an6MPPrzPokmKwTBV1P-12">
          <mxGeometry width="50" height="50" relative="1" as="geometry">
            <mxPoint x="265" y="510" as="sourcePoint" />
            <mxPoint x="265" y="170" as="targetPoint" />
          </mxGeometry>
        </mxCell>
        <mxCell id="2an6MPPrzPokmKwTBV1P-12" value="" style="html=1;points=[];perimeter=orthogonalPerimeter;outlineConnect=0;targetShapes=umlLifeline;portConstraint=eastwest;newEdgeStyle={&quot;edgeStyle&quot;:&quot;elbowEdgeStyle&quot;,&quot;elbow&quot;:&quot;vertical&quot;,&quot;curved&quot;:0,&quot;rounded&quot;:0};" vertex="1" parent="1">
          <mxGeometry x="260" y="300" width="10" height="80" as="geometry" />
        </mxCell>
        <mxCell id="2an6MPPrzPokmKwTBV1P-15" value="1. Selecione um horário disponível" style="text;html=1;strokeColor=none;fillColor=none;align=center;verticalAlign=middle;whiteSpace=wrap;rounded=0;" vertex="1" parent="1">
          <mxGeometry x="120" y="280" width="150" height="20" as="geometry" />
        </mxCell>
        <mxCell id="2an6MPPrzPokmKwTBV1P-17" value="" style="endArrow=none;dashed=1;html=1;rounded=0;startArrow=classic;startFill=1;" edge="1" parent="1" source="aM9ryv3xv72pqoxQDRHE-2">
          <mxGeometry width="50" height="50" relative="1" as="geometry">
            <mxPoint x="125" y="380" as="sourcePoint" />
            <mxPoint x="265" y="380" as="targetPoint" />
          </mxGeometry>
        </mxCell>
        <mxCell id="2an6MPPrzPokmKwTBV1P-19" value="" style="endArrow=open;dashed=1;html=1;rounded=0;endFill=0;" edge="1" parent="1" target="2an6MPPrzPokmKwTBV1P-22">
          <mxGeometry width="50" height="50" relative="1" as="geometry">
            <mxPoint x="270" y="320" as="sourcePoint" />
            <mxPoint x="400" y="320" as="targetPoint" />
          </mxGeometry>
        </mxCell>
        <mxCell id="2an6MPPrzPokmKwTBV1P-24" style="edgeStyle=elbowEdgeStyle;rounded=0;orthogonalLoop=1;jettySize=auto;html=1;elbow=vertical;curved=0;entryX=0;entryY=0;entryDx=0;entryDy=0;entryPerimeter=0;" edge="1" parent="1" source="2an6MPPrzPokmKwTBV1P-23" target="2an6MPPrzPokmKwTBV1P-26">
          <mxGeometry relative="1" as="geometry">
            <mxPoint x="430" y="410" as="targetPoint" />
          </mxGeometry>
        </mxCell>
        <mxCell id="2an6MPPrzPokmKwTBV1P-39" style="edgeStyle=elbowEdgeStyle;rounded=0;orthogonalLoop=1;jettySize=auto;html=1;elbow=vertical;curved=0;" edge="1" parent="1">
          <mxGeometry relative="1" as="geometry">
            <mxPoint x="120" y="530" as="sourcePoint" />
            <mxPoint x="660" y="530" as="targetPoint" />
          </mxGeometry>
        </mxCell>
        <mxCell id="2an6MPPrzPokmKwTBV1P-23" value="" style="html=1;points=[];perimeter=orthogonalPerimeter;outlineConnect=0;targetShapes=umlLifeline;portConstraint=eastwest;newEdgeStyle={&quot;edgeStyle&quot;:&quot;elbowEdgeStyle&quot;,&quot;elbow&quot;:&quot;vertical&quot;,&quot;curved&quot;:0,&quot;rounded&quot;:0};" vertex="1" parent="1">
          <mxGeometry x="110" y="410" width="10" height="190" as="geometry" />
        </mxCell>
        <mxCell id="2an6MPPrzPokmKwTBV1P-25" value="" style="endArrow=none;dashed=1;html=1;rounded=0;entryX=0.5;entryY=1;entryDx=0;entryDy=0;" edge="1" parent="1" target="2an6MPPrzPokmKwTBV1P-47">
          <mxGeometry width="50" height="50" relative="1" as="geometry">
            <mxPoint x="475" y="590" as="sourcePoint" />
            <mxPoint x="475" y="180" as="targetPoint" />
          </mxGeometry>
        </mxCell>
        <mxCell id="2an6MPPrzPokmKwTBV1P-22" value="" style="html=1;points=[];perimeter=orthogonalPerimeter;outlineConnect=0;targetShapes=umlLifeline;portConstraint=eastwest;newEdgeStyle={&quot;edgeStyle&quot;:&quot;elbowEdgeStyle&quot;,&quot;elbow&quot;:&quot;vertical&quot;,&quot;curved&quot;:0,&quot;rounded&quot;:0};" vertex="1" parent="1">
          <mxGeometry x="470" y="310" width="10" height="20" as="geometry" />
        </mxCell>
        <mxCell id="2an6MPPrzPokmKwTBV1P-26" value="" style="html=1;points=[];perimeter=orthogonalPerimeter;outlineConnect=0;targetShapes=umlLifeline;portConstraint=eastwest;newEdgeStyle={&quot;edgeStyle&quot;:&quot;elbowEdgeStyle&quot;,&quot;elbow&quot;:&quot;vertical&quot;,&quot;curved&quot;:0,&quot;rounded&quot;:0};" vertex="1" parent="1">
          <mxGeometry x="470" y="410" width="10" height="90" as="geometry" />
        </mxCell>
        <mxCell id="2an6MPPrzPokmKwTBV1P-27" value="2. Selecione o espaço desejado()" style="text;html=1;strokeColor=none;fillColor=none;align=center;verticalAlign=middle;whiteSpace=wrap;rounded=0;" vertex="1" parent="1">
          <mxGeometry x="190" y="390" width="190" height="30" as="geometry" />
        </mxCell>
        <mxCell id="2an6MPPrzPokmKwTBV1P-28" value="" style="endArrow=none;dashed=1;html=1;rounded=0;" edge="1" parent="1" source="aM9ryv3xv72pqoxQDRHE-2">
          <mxGeometry width="50" height="50" relative="1" as="geometry">
            <mxPoint x="114.5" y="290" as="sourcePoint" />
            <mxPoint x="115" y="150" as="targetPoint" />
          </mxGeometry>
        </mxCell>
        <mxCell id="2an6MPPrzPokmKwTBV1P-33" value="" style="endArrow=open;dashed=1;html=1;rounded=0;endFill=0;" edge="1" parent="1" target="2an6MPPrzPokmKwTBV1P-35">
          <mxGeometry width="50" height="50" relative="1" as="geometry">
            <mxPoint x="480" y="435" as="sourcePoint" />
            <mxPoint x="600" y="434.5" as="targetPoint" />
          </mxGeometry>
        </mxCell>
        <mxCell id="2an6MPPrzPokmKwTBV1P-38" value="" style="endArrow=none;dashed=1;html=1;rounded=0;entryX=0.5;entryY=1;entryDx=0;entryDy=0;" edge="1" parent="1" target="2an6MPPrzPokmKwTBV1P-37">
          <mxGeometry width="50" height="50" relative="1" as="geometry">
            <mxPoint x="665" y="670" as="sourcePoint" />
            <mxPoint x="664.5" y="430" as="targetPoint" />
          </mxGeometry>
        </mxCell>
        <mxCell id="2an6MPPrzPokmKwTBV1P-37" value="" style="html=1;points=[];perimeter=orthogonalPerimeter;outlineConnect=0;targetShapes=umlLifeline;portConstraint=eastwest;newEdgeStyle={&quot;edgeStyle&quot;:&quot;elbowEdgeStyle&quot;,&quot;elbow&quot;:&quot;vertical&quot;,&quot;curved&quot;:0,&quot;rounded&quot;:0};" vertex="1" parent="1">
          <mxGeometry x="660" y="530" width="10" height="80" as="geometry" />
        </mxCell>
        <mxCell id="2an6MPPrzPokmKwTBV1P-40" value="3. Confirma agendamento " style="text;html=1;strokeColor=none;fillColor=none;align=center;verticalAlign=middle;whiteSpace=wrap;rounded=0;" vertex="1" parent="1">
          <mxGeometry x="280" y="510" width="190" height="30" as="geometry" />
        </mxCell>
        <mxCell id="2an6MPPrzPokmKwTBV1P-4" value="Consultar disponibilidade de agenda" style="rounded=0;whiteSpace=wrap;html=1;" vertex="1" parent="1">
          <mxGeometry x="40" y="190" width="320" height="50" as="geometry" />
        </mxCell>
        <mxCell id="2an6MPPrzPokmKwTBV1P-41" value="Agenda" style="rounded=0;whiteSpace=wrap;html=1;" vertex="1" parent="1">
          <mxGeometry x="770" y="130" width="150" height="40" as="geometry" />
        </mxCell>
        <mxCell id="2an6MPPrzPokmKwTBV1P-42" value="" style="endArrow=open;dashed=1;html=1;rounded=0;endFill=0;" edge="1" parent="1">
          <mxGeometry width="50" height="50" relative="1" as="geometry">
            <mxPoint x="670" y="540.5" as="sourcePoint" />
            <mxPoint x="840" y="541" as="targetPoint" />
          </mxGeometry>
        </mxCell>
        <mxCell id="2an6MPPrzPokmKwTBV1P-44" value="" style="endArrow=none;dashed=1;html=1;rounded=0;entryX=0.5;entryY=1;entryDx=0;entryDy=0;" edge="1" parent="1" target="2an6MPPrzPokmKwTBV1P-41">
          <mxGeometry width="50" height="50" relative="1" as="geometry">
            <mxPoint x="844.5" y="670" as="sourcePoint" />
            <mxPoint x="844.5" y="610" as="targetPoint" />
          </mxGeometry>
        </mxCell>
        <mxCell id="2an6MPPrzPokmKwTBV1P-43" value="" style="html=1;points=[];perimeter=orthogonalPerimeter;outlineConnect=0;targetShapes=umlLifeline;portConstraint=eastwest;newEdgeStyle={&quot;edgeStyle&quot;:&quot;elbowEdgeStyle&quot;,&quot;elbow&quot;:&quot;vertical&quot;,&quot;curved&quot;:0,&quot;rounded&quot;:0};" vertex="1" parent="1">
          <mxGeometry x="840" y="520" width="10" height="60" as="geometry" />
        </mxCell>
        <mxCell id="2an6MPPrzPokmKwTBV1P-46" value="" style="endArrow=none;dashed=1;html=1;rounded=0;entryX=0.5;entryY=1;entryDx=0;entryDy=0;" edge="1" parent="1" source="2an6MPPrzPokmKwTBV1P-35">
          <mxGeometry width="50" height="50" relative="1" as="geometry">
            <mxPoint x="665" y="530" as="sourcePoint" />
            <mxPoint x="665" y="160" as="targetPoint" />
          </mxGeometry>
        </mxCell>
        <mxCell id="2an6MPPrzPokmKwTBV1P-47" value="horarios" style="rounded=0;whiteSpace=wrap;html=1;" vertex="1" parent="1">
          <mxGeometry x="400" y="130" width="150" height="40" as="geometry" />
        </mxCell>
        <mxCell id="2an6MPPrzPokmKwTBV1P-48" value="detalhes do espaço" style="rounded=0;whiteSpace=wrap;html=1;" vertex="1" parent="1">
          <mxGeometry x="590" y="130" width="150" height="40" as="geometry" />
        </mxCell>
        <mxCell id="2an6MPPrzPokmKwTBV1P-49" value="" style="endArrow=none;dashed=1;html=1;rounded=0;entryX=0.5;entryY=1;entryDx=0;entryDy=0;" edge="1" parent="1" source="2an6MPPrzPokmKwTBV1P-37" target="2an6MPPrzPokmKwTBV1P-35">
          <mxGeometry width="50" height="50" relative="1" as="geometry">
            <mxPoint x="665" y="530" as="sourcePoint" />
            <mxPoint x="665" y="160" as="targetPoint" />
          </mxGeometry>
        </mxCell>
        <mxCell id="2an6MPPrzPokmKwTBV1P-35" value="" style="html=1;points=[];perimeter=orthogonalPerimeter;outlineConnect=0;targetShapes=umlLifeline;portConstraint=eastwest;newEdgeStyle={&quot;edgeStyle&quot;:&quot;elbowEdgeStyle&quot;,&quot;elbow&quot;:&quot;vertical&quot;,&quot;curved&quot;:0,&quot;rounded&quot;:0};" vertex="1" parent="1">
          <mxGeometry x="660" y="430" width="10" height="20" as="geometry" />
        </mxCell>
        <mxCell id="2an6MPPrzPokmKwTBV1P-51" value="" style="endArrow=open;dashed=1;html=1;rounded=0;endFill=0;entryX=1;entryY=0.368;entryDx=0;entryDy=0;entryPerimeter=0;" edge="1" parent="1">
          <mxGeometry width="50" height="50" relative="1" as="geometry">
            <mxPoint x="470" y="490.08" as="sourcePoint" />
            <mxPoint x="120" y="490.00000000000006" as="targetPoint" />
          </mxGeometry>
        </mxCell>
        <mxCell id="2an6MPPrzPokmKwTBV1P-52" value="2.1 Espaço indisponível" style="text;html=1;strokeColor=none;fillColor=none;align=center;verticalAlign=middle;whiteSpace=wrap;rounded=0;" vertex="1" parent="1">
          <mxGeometry x="300" y="470" width="130" height="20" as="geometry" />
        </mxCell>
      </root>
    </mxGraphModel>
  </diagram>
</mxfile>
